<svg version="1" xmlns="http://www.w3.org/2000/svg" width="1017.333" height="1017.333" viewBox="0 0 763.000000 763.000000"><path d="M348.5 19.7c-17.6 10.2-33.6 19.5-35.5 20.6-4.1 2.3-26.9 15.4-57.3 33.1-12 6.9-22.1 12.6-22.3 12.6-.3 0-1.7.8-3.2 1.9-2.5 1.7-31.3 18.4-41.2 23.9-4 2.2-17.2 9.9-21 12.2-.8.5-4.2 2.4-7.5 4.3-9.5 5.4-12.3 7-24.1 13.9-6.1 3.6-11.7 6.8-12.5 7.1-.8.4-3 1.7-4.9 2.8-4.2 2.5-33.6 19.7-36.5 21.3-12.8 7.1-29.6 17-30.1 17.7-.3.6-.8 351.9-.4 377.5 0 3.3.9 3.9 43.9 28.5 2.5 1.5 8.7 5 13.6 7.9 5 2.9 10.8 6.2 13 7.5 2.2 1.2 11.1 6.3 19.8 11.3 8.6 5 16.6 9.6 17.6 10.2 1.9 1 2-1.6 2-186.3 0-102.9 0-188.6.1-190.3 0-2.9.8-3.6 12.8-10.5 7-4.1 13.6-7.9 14.7-8.5 1.1-.6 6.5-3.7 12-6.9s14.7-8.5 20.5-11.8c5.8-3.3 11.9-6.8 13.5-7.8 2.9-1.7 8.3-4.8 17.5-10.1 2.5-1.4 8.6-4.9 13.5-7.8 5-2.9 11.1-6.4 13.6-7.9 17.2-9.9 33.6-19.4 34.9-20.2 1.5-.9 21.3-12.4 28-16.2 1.9-1 11.2-6.4 20.6-11.8 9.5-5.5 17.6-9.9 18-9.9.5 0 6.1 3 12.4 6.6 6.3 3.7 13.1 7.5 15 8.6 4.3 2.5 30.8 17.9 33.2 19.3.9.5 2.9 1.7 4.5 2.6 1.5.8 17.9 10.2 36.3 20.9 18.4 10.6 34.9 20.1 36.5 21 1.7 1 10.2 5.9 19 11l19.5 11.3c8.5 4.8 29.8 17.2 33.2 19.3 2.1 1.3 4 2.4 4.4 2.4.3 0 1.8.9 3.3 1.9l2.6 1.9v253.4l-9 5.4c-5 2.9-9.7 5.7-10.5 6.1-1.2.5-37.1 21.2-49 28.1-1.9 1.2-7.1 4.1-11.5 6.7-4.4 2.5-9.8 5.6-12 6.9-5.6 3.2-87.2 50.4-91.5 52.9-1.9 1-10.8 6.2-19.8 11.3-9 5.2-16.5 9.4-16.7 9.4-.2 0-4.8-2.7-10.3-5.9-5.5-3.2-12.4-7.2-15.4-8.9-9-5-55.8-32.1-64.5-37.3-4.5-2.7-8.4-4.9-8.7-4.9-.3 0-2.7-1.3-5.3-3-2.6-1.6-4.9-3-5.2-3-.4 0-.6 28.5-.5 63.2l.1 63.3 33.9 19.8c18.6 10.8 34.6 20 35.4 20.4.8.4 4.9 2.7 9 5.1 4.1 2.4 10.4 6 14 8 3.6 1.9 7.1 4 7.9 4.6 1.7 1.3 5 3.3 7.9 4.5 1.8.9 3 .6 6-1.2 2-1.3 4.4-2.6 5.2-3 .8-.4 3.3-1.8 5.5-3.1 2.2-1.4 5.1-3.1 6.5-3.9 1.4-.7 12.9-7.3 25.5-14.7 12.7-7.3 24.4-14 26-15 1.7-.9 8.7-5 15.5-9 6.9-4 15-8.6 18-10.3 3-1.6 6-3.3 6.5-3.7.6-.4 2.7-1.7 4.8-2.9 3.5-2 6.2-3.5 14-8 1.7-1 5.5-3.2 8.3-4.8 2.7-1.7 7-4.1 9.5-5.5 2.4-1.4 6-3.4 7.9-4.5 1.9-1.1 11.8-6.8 22-12.7 10.2-5.8 19.2-11 20-11.5 3.9-2.5 61.5-35.6 62.5-36 .5-.2 1.7-.9 2.5-1.6.8-.7 3.8-2.5 6.5-4 2.8-1.4 6.6-3.6 8.5-4.7 1.9-1.1 12.5-7.2 23.5-13.6 11-6.3 21.6-12.5 23.5-13.7l3.5-2.2V381.2c-.1-104.6-.3-190.3-.5-190.5-.3-.2-7.9-4.6-17-9.8-9.1-5.1-16.7-9.6-17-9.9-.3-.3-2.1-1.3-4-2.4-3.4-1.8-32.9-18.8-36-20.7-1.4-.8-26.2-15.1-35.3-20.3-5.5-3.1-26.8-15.4-28.7-16.6-.8-.5-15.7-9.1-33-19s-32.2-18.5-33-19c-4-2.4-18.1-10.6-23-13.3-3-1.7-7.7-4.4-10.5-6.2-2.7-1.7-5.8-3.4-6.7-3.8-1-.3-4.3-2.2-7.3-4.2-3.1-1.9-5.7-3.5-6-3.5-.2 0-4.9-2.6-10.2-5.8-5.4-3.2-10.5-6.1-11.3-6.5-.8-.4-2.8-1.5-4.5-2.6-1.6-1-4.6-2.7-6.5-3.8-1.9-1.1-11.4-6.6-21.1-12.2-9.6-5.5-18-10.1-18.5-10-.5 0-15.3 8.4-32.9 18.6z"/><path d="M376.5 257.4c-5.4 3.1-38.5 22.3-62.7 36.2-10.8 6.3-21.2 12.2-23 13.3-1.8 1.1-5 2.9-7 4-7.4 4-11.8 7.1-11.9 8.4-.1 1.6-.1 122.9 0 124.4.1 1 2.4 2.6 10.6 7.3 1.7.9 10.2 5.9 19 11s18 10.5 20.5 11.9c2.5 1.3 14.2 8.1 26 14.9 11.8 6.9 23.5 13.6 26 15 2.5 1.3 5.1 2.9 5.8 3.5 1.5 1.2 5-.6 37.5-19.7 5.2-3 57-32.9 59.2-34.1 1.1-.6 4.9-2.8 8.5-4.9l6.5-3.7v-63.4c0-62.2-.1-63.5-2-64.9-1.1-.9-2.6-1.6-3.2-1.6-.7 0-1.3-.5-1.3-1.2 0-.6-.3-.8-.7-.5-.3.4-1.3.1-2.2-.6-.9-.8-5.2-3.4-9.6-5.9-4.4-2.5-9.6-5.5-11.5-6.5-1.9-1.1-16.1-9.3-31.5-18.3-26.7-15.4-30.7-17.8-40-23-2.2-1.2-4.4-2.6-4.9-3.1-1.6-1.4-3.8-1-8.1 1.5z"/></svg>