<svg width="45" height="43" fill="none" xmlns="http://www.w3.org/2000/svg">
    <path
      fillRule="evenodd"
      clipRule="evenodd"
      d="M22.48.25a21.72 21.72 0 00-6.87 42.33c1.09.2 1.49-.47 1.49-1.04l-.03-3.7c-6.04 1.31-7.32-2.91-7.32-2.91-.99-2.5-2.41-3.18-2.41-3.18-1.97-1.34.15-1.32.15-1.32 2.18.16 3.33 2.24 3.33 2.24 1.93 3.32 5.08 2.36 6.32 1.8.2-1.4.75-2.35 1.38-2.9-4.83-.55-9.9-2.4-9.9-10.73a8.4 8.4 0 012.24-5.83 7.8 7.8 0 01.21-5.75s1.82-.58 5.97 2.23a20.74 20.74 0 0110.88 0c4.14-2.81 5.96-2.23 5.96-2.23 1.19 3 .44 5.2.22 5.75a8.38 8.38 0 012.23 5.83c0 8.34-5.07 10.18-9.91 10.72.78.67 1.47 2 1.47 4.02 0 2.9-.03 5.24-.03 5.96 0 .58.4 1.25 1.5 1.04A21.73 21.73 0 0022.48.25z"
      fill="#fff"
    />
  </svg>
